<svg xmlns="http://www.w3.org/2000/svg" width="30" height="30" viewBox="0 0 38 38" fill="none">
                    <path d="M19.0003 28.5C24.247 28.5 28.5003 24.2467 28.5003 19C28.5003 13.7533 24.247 9.5 19.0003 9.5C13.7536 9.5 9.50033 13.7533 9.50033 19C9.50033 24.2467 13.7536 28.5 19.0003 28.5Z" fill="#07CDBE" fill-opacity="0.1"></path>
                    <path d="M15.8337 27.9594V31.6667C15.8337 33.4156 17.2514 34.8333 19.0003 34.8333C20.7492 34.8333 22.167 33.4156 22.167 31.6667V27.9594M19.0003 3.16667V4.75001M4.75033 19H3.16699M8.70866 8.70834L7.7585 7.75818M29.292 8.70834L30.2424 7.75818M34.8337 19H33.2503M28.5003 19C28.5003 24.2467 24.247 28.5 19.0003 28.5C13.7536 28.5 9.50033 24.2467 9.50033 19C9.50033 13.7533 13.7536 9.5 19.0003 9.5C24.247 9.5 28.5003 13.7533 28.5003 19Z" stroke="url(#paint0_linear_354_373)" strokeWidth="2" strokeLinecap="round" strokeLinejoin="round"></path>
                    <defs>
                      <linearGradient id="paint0_linear_354_373" x1="-3.87005" y1="11.0833" x2="31.1175" y2="26.584" gradientUnits="userSpaceOnUse">
                        <stop stop-color="#006EFA"></stop>
                        <stop offset="1" stop-color="#07CDBE"></stop>
                      </linearGradient>
                    </defs>
                  </svg>