<svg xmlns="http://www.w3.org/2000/svg" width="30" height="30" viewBox="0 0 38 38" fill="none">
                    <path d="M26.9167 22.1667C26.9167 22.6039 26.5622 22.9583 26.125 22.9583C25.6878 22.9583 25.3333 22.6039 25.3333 22.1667C25.3333 21.7294 25.6878 21.375 26.125 21.375C26.5622 21.375 26.9167 21.7294 26.9167 22.1667Z" fill="#07CDBE" fill-opacity="0.1"></path>
                    <path d="M33.25 30.0833V14.25C33.25 12.5011 31.8322 11.0833 30.0833 11.0833L7.91667 11.0833C6.16777 11.0833 4.75 9.66557 4.75 7.91667V30.0833C4.75 31.8322 6.16776 33.25 7.91667 33.25H30.0833C31.8322 33.25 33.25 31.8322 33.25 30.0833Z" fill="#07CDBE" fill-opacity="0.1"></path>
                    <path d="M26.125 22.1667H26.1408M4.75 7.91667V30.0833C4.75 31.8322 6.16776 33.25 7.91667 33.25H30.0833C31.8322 33.25 33.25 31.8322 33.25 30.0833V14.25C33.25 12.5011 31.8322 11.0833 30.0833 11.0833L7.91667 11.0833C6.16777 11.0833 4.75 9.66557 4.75 7.91667ZM4.75 7.91667C4.75 6.16776 6.16777 4.75 7.91667 4.75H26.9167M26.9167 22.1667C26.9167 22.6039 26.5622 22.9583 26.125 22.9583C25.6878 22.9583 25.3333 22.6039 25.3333 22.1667C25.3333 21.7294 25.6878 21.375 26.125 21.375C26.5622 21.375 26.9167 21.7294 26.9167 22.1667Z" stroke="url(#paint0_linear_354_372)" strokeWidth="2" strokeLinecap="round" strokeLinejoin="round"></path>
                    <defs>
                      <linearGradient id="paint0_linear_354_372" x1="-1.58334" y1="11.875" x2="29.9055" y2="25.8256" gradientUnits="userSpaceOnUse">
                        <stop stop-color="#006EFA"></stop>
                        <stop offset="1" stop-color="#07CDBE"></stop>
                      </linearGradient>
                    </defs>
                  </svg>