<svg xmlns="http://www.w3.org/2000/svg" width="30" height="30" viewBox="0 0 38 38" fill="none">
                    <path d="M4.75 12.35C4.75 9.68975 4.75 8.35963 5.26772 7.34355C5.72312 6.44978 6.44978 5.72312 7.34355 5.26772C8.35963 4.75 9.68975 4.75 12.35 4.75H25.65C28.3103 4.75 29.6404 4.75 30.6565 5.26772C31.5502 5.72312 32.2769 6.44978 32.7323 7.34355C33.25 8.35963 33.25 9.68975 33.25 12.35V25.65C33.25 28.3103 33.25 29.6404 32.7323 30.6565C32.2769 31.5502 31.5502 32.2769 30.6565 32.7323C29.6404 33.25 28.3102 33.25 25.65 33.25H12.35C9.68975 33.25 8.35963 33.25 7.34355 32.7323C6.44978 32.2769 5.72312 31.5502 5.26772 30.6565C4.75 29.6404 4.75 28.3102 4.75 25.65V12.35Z" fill="#07CDBE" fill-opacity="0.1"></path>
                    <path d="M12.6667 20.5833V26.9167V20.5833Z" fill="#07CDBE" fill-opacity="0.1"></path>
                    <path d="M25.3333 17.4167V26.9167V17.4167Z" fill="#07CDBE" fill-opacity="0.1"></path>
                    <path d="M19 11.0833V26.9167V11.0833Z" fill="#07CDBE" fill-opacity="0.1"></path>
                    <path d="M12.6667 20.5833V26.9167M25.3333 17.4167V26.9167M19 11.0833V26.9167M12.35 33.25H25.65C28.3102 33.25 29.6404 33.25 30.6565 32.7323C31.5502 32.2769 32.2769 31.5502 32.7323 30.6565C33.25 29.6404 33.25 28.3103 33.25 25.65V12.35C33.25 9.68975 33.25 8.35963 32.7323 7.34355C32.2769 6.44978 31.5502 5.72312 30.6565 5.26772C29.6404 4.75 28.3103 4.75 25.65 4.75H12.35C9.68975 4.75 8.35963 4.75 7.34355 5.26772C6.44978 5.72312 5.72312 6.44978 5.26772 7.34355C4.75 8.35963 4.75 9.68975 4.75 12.35V25.65C4.75 28.3102 4.75 29.6404 5.26772 30.6565C5.72312 31.5502 6.44978 32.2769 7.34355 32.7323C8.35963 33.25 9.68975 33.25 12.35 33.25Z" stroke="url(#paint0_linear_354_368)" strokeWidth="2" strokeLinecap="round" strokeLinejoin="round"></path>
                    <defs>
                      <linearGradient id="paint0_linear_354_368" x1="-1.58334" y1="11.875" x2="29.9055" y2="25.8256" gradientUnits="userSpaceOnUse">
                        <stop stop-color="#006EFA"></stop>
                        <stop offset="1" stop-color="#07CDBE"></stop>
                      </linearGradient>
                    </defs>
                  </svg>