
                        <svg xmlns="http://www.w3.org/2000/svg" width="30" height="30" viewBox="0 0 30 30" fill="none"><path d="M21.69 20.625H10.9926C9.75493 20.625 9.13608 20.625 8.63919 20.3967C8.20135 20.1956 7.83097 19.8722 7.57262 19.4654C7.27944 19.0039 7.19601 18.3907 7.02915 17.1643L5.71429 7.5H26.2915C26.7062 7.5 26.9136 7.5 27.0594 7.58502C27.1874 7.65961 27.2847 7.77721 27.334 7.91687C27.3903 8.07608 27.3515 8.27976 27.2739 8.68711L25.6193 17.3734C25.3989 18.5308 25.2887 19.1095 24.9903 19.5428C24.7273 19.9248 24.3632 20.2261 23.9387 20.413C23.4573 20.625 22.8682 20.625 21.69 20.625Z" fill="#07CDBE" fill-opacity="0.1"></path><path d="M11.25 27.5C11.9404 27.5 12.5 26.9404 12.5 26.25C12.5 25.5596 11.9404 25 11.25 25C10.5596 25 10 25.5596 10 26.25C10 26.9404 10.5596 27.5 11.25 27.5Z" fill="#07CDBE" fill-opacity="0.1"></path><path d="M21.25 27.5C21.9404 27.5 22.5 26.9404 22.5 26.25C22.5 25.5596 21.9404 25 21.25 25C20.5596 25 20 25.5596 20 26.25C20 26.9404 20.5596 27.5 21.25 27.5Z" fill="#07CDBE" fill-opacity="0.1"></path><path d="M2.5 2.5H4.1327C4.44023 2.5 4.59399 2.5 4.71773 2.55655C4.82677 2.60638 4.91918 2.68653 4.98394 2.78743C5.05742 2.90193 5.07916 3.05415 5.12265 3.35858L5.71429 7.5M5.71429 7.5L7.02915 17.1643C7.19601 18.3907 7.27944 19.0039 7.57262 19.4654C7.83097 19.8722 8.20135 20.1956 8.63919 20.3967C9.13608 20.625 9.75493 20.625 10.9926 20.625H21.69C22.8682 20.625 23.4573 20.625 23.9387 20.413C24.3632 20.2261 24.7273 19.9248 24.9903 19.5428C25.2887 19.1095 25.3989 18.5308 25.6193 17.3734L27.2739 8.68711C27.3515 8.27976 27.3903 8.07608 27.334 7.91687C27.2847 7.77721 27.1874 7.65961 27.0594 7.58502C26.9136 7.5 26.7062 7.5 26.2915 7.5H5.71429ZM12.5 26.25C12.5 26.9404 11.9404 27.5 11.25 27.5C10.5596 27.5 10 26.9404 10 26.25C10 25.5596 10.5596 25 11.25 25C11.9404 25 12.5 25.5596 12.5 26.25ZM22.5 26.25C22.5 26.9404 21.9404 27.5 21.25 27.5C20.5596 27.5 20 26.9404 20 26.25C20 25.5596 20.5596 25 21.25 25C21.9404 25 22.5 25.5596 22.5 26.25Z" stroke="url(#paint0_linear_101_549)" strokeWidth="2" strokeLinecap="round" strokeLinejoin="round"></path><defs><linearGradient id="paint0_linear_101_549" x1="-3.0246" y1="8.75001" x2="24.4934" y2="20.8735" gradientUnits="userSpaceOnUse"><stop stop-color="#006EFA"></stop><stop offset="1" stop-color="#07CDBE"></stop></linearGradient></defs></svg>